<?xml version="1.0" encoding="UTF-8"?>
<svg xmlns="http://www.w3.org/2000/svg" width="25" height="24" viewBox="0 0 25 24" fill="none">
  <path d="M22.2665 5.54986C18.6665 -0.000183464 11.3164 -1.6502 5.61636 1.79983C0.0663201 5.24986 -1.73369 12.7499 1.86633 18.3L2.16634 18.75L0.966327 23.25L5.46636 22.05L5.91637 22.35C7.86638 23.4 9.9664 24 12.0664 24C14.3164 24 16.5664 23.4 18.5165 22.2C24.0665 18.6 25.7165 11.2499 22.2665 5.54986ZM19.1165 17.0999C18.5165 18 17.7665 18.6 16.7164 18.75C16.1164 18.75 15.3664 19.05 12.3664 17.85C9.81639 16.6499 7.71638 14.6999 6.21637 12.4499C5.31636 11.3999 4.86636 10.0499 4.71636 8.69988C4.71636 7.49987 5.16636 6.44987 5.91637 5.69986C6.21637 5.39986 6.51637 5.24986 6.81637 5.24986H7.56638C7.86638 5.24986 8.16638 5.24986 8.31638 5.84986C8.61639 6.59987 9.36639 8.39988 9.36639 8.54988C9.51639 8.69988 9.51639 8.99989 9.36639 9.14989C9.51639 9.44989 9.36639 9.74989 9.21639 9.89989C9.06639 10.0499 8.91639 10.3499 8.76639 10.4999C8.46638 10.6499 8.31638 10.9499 8.46638 11.2499C9.06639 12.1499 9.81639 13.0499 10.5664 13.7999C11.4664 14.5499 12.3664 15.1499 13.4164 15.5999C13.7164 15.7499 14.0164 15.7499 14.1664 15.4499C14.3164 15.1499 15.0664 14.3999 15.3664 14.0999C15.6664 13.7999 15.8164 13.7999 16.1164 13.9499L18.5165 15.1499C18.8165 15.2999 19.1165 15.4499 19.2665 15.5999C19.4165 16.0499 19.4165 16.6499 19.1165 17.0999Z" fill="white"></path>
</svg>
